<?xml version="1.0" encoding="utf-8"?>
<svg xmlns="http://www.w3.org/2000/svg" width="100" height="100" viewBox="0 0 100 100" fill="none">
<g clip-path="url(#clip0)">
<path d="M49.8184 0.0200525C49.5671 0.0556023 49.3262 0.144353 49.1118 0.280382L2.06647 30.1068C1.86618 30.2313 1.69238 30.394 1.55499 30.5857C1.41761 30.7774 1.31933 30.9943 1.26577 31.224C1.21221 31.4536 1.20442 31.6916 1.24285 31.9243C1.28127 32.157 1.36515 32.3798 1.48971 32.5801C1.61426 32.7804 1.77705 32.9541 1.96877 33.0915C2.16049 33.2288 2.37738 33.327 2.60707 33.3806C2.83676 33.4341 3.07474 33.4418 3.30742 33.4033C3.5401 33.3649 3.76292 33.2809 3.96316 33.1563L50.0788 3.88781L96.1572 33.1563C96.3574 33.2833 96.5807 33.3696 96.8143 33.4103C97.0479 33.451 97.2872 33.4453 97.5186 33.3935C97.75 33.3417 97.9689 33.2448 98.1628 33.1084C98.3567 32.972 98.5219 32.7987 98.6489 32.5985C98.7759 32.3983 98.8622 32.175 98.9029 31.9414C98.9436 31.7078 98.9378 31.4685 98.886 31.2371C98.8342 31.0057 98.7374 30.7868 98.601 30.5929C98.4646 30.3989 98.2913 30.2337 98.0911 30.1068L51.0457 0.280382C50.6816 0.0479908 50.2455 -0.0445011 49.8184 0.0200525ZM17.7235 32.115C17.2832 32.1703 16.8793 32.3876 16.5905 32.7245C16.3018 33.0614 16.1488 33.4938 16.1615 33.9373V79.8298C16.1581 80.0663 16.2018 80.3012 16.29 80.5207C16.3783 80.7402 16.5092 80.94 16.6753 81.1085C16.8414 81.2769 17.0393 81.4107 17.2576 81.502C17.4758 81.5933 17.71 81.6403 17.9466 81.6403C18.1832 81.6403 18.4174 81.5933 18.6356 81.502C18.8539 81.4107 19.0518 81.2769 19.2179 81.1085C19.384 80.94 19.5149 80.7402 19.6032 80.5207C19.6914 80.3012 19.7351 80.0663 19.7317 79.8298V33.9373C19.7391 33.6798 19.6906 33.4237 19.5897 33.1867C19.4887 32.9496 19.3377 32.7373 19.1469 32.5641C18.9561 32.391 18.73 32.2612 18.4843 32.1837C18.2386 32.1062 17.9791 32.0827 17.7235 32.115ZM81.9878 32.115C81.5475 32.1703 81.1436 32.3876 80.8549 32.7245C80.5661 33.0614 80.4131 33.4938 80.4258 33.9373V79.8298C80.4225 80.0663 80.4662 80.3012 80.5544 80.5207C80.6426 80.7402 80.7735 80.94 80.9396 81.1085C81.1057 81.2769 81.3036 81.4107 81.5219 81.502C81.7401 81.5933 81.9743 81.6403 82.2109 81.6403C82.4475 81.6403 82.6817 81.5933 82.9 81.502C83.1182 81.4107 83.3161 81.2769 83.4822 81.1085C83.6483 80.94 83.7793 80.7402 83.8675 80.5207C83.9557 80.3012 83.9994 80.0663 83.996 79.8298V33.9373C84.0034 33.6798 83.955 33.4237 83.854 33.1867C83.753 32.9496 83.602 32.7373 83.4112 32.5641C83.2204 32.391 82.9944 32.2612 82.7487 32.1837C82.503 32.1062 82.2434 32.0827 81.9878 32.115ZM49.8556 35.3506C49.4218 35.4052 49.0232 35.6172 48.7353 35.9462C48.4474 36.2752 48.2902 36.6985 48.2936 37.1357V39.3671C46.0547 39.6221 44.1337 40.3479 42.6779 41.4869C40.846 42.9203 39.7399 45.0413 39.7399 47.2514C39.7399 49.5875 41.0962 51.6123 42.9755 52.9786C44.7766 54.2881 47.109 55.0786 49.6697 55.21C49.7808 55.2157 49.8924 55.2067 50.0044 55.21C50.0663 55.2132 50.1284 55.2132 50.1903 55.21C52.1359 55.3024 53.8912 55.9578 55.0622 56.8092C56.2706 57.6878 56.8101 58.6807 56.8101 59.6356C56.8101 60.7169 56.3294 61.7276 55.2482 62.5736C54.1669 63.4197 52.463 64.0612 50.0788 64.0612C48.0908 64.0612 46.2994 63.4253 45.0953 62.5364C43.8911 61.6474 43.3102 60.5908 43.3102 59.6356C43.3135 59.3991 43.2698 59.1642 43.1816 58.9447C43.0934 58.7252 42.9624 58.5254 42.7963 58.3569C42.6303 58.1885 42.4323 58.0547 42.2141 57.9634C41.9958 57.8721 41.7616 57.8251 41.5251 57.8251C41.2885 57.8251 41.0543 57.8721 40.836 57.9634C40.6178 58.0547 40.4199 58.1885 40.2538 58.3569C40.0877 58.5254 39.9567 58.7252 39.8685 58.9447C39.7803 59.1642 39.7366 59.3991 39.7399 59.6356C39.7399 61.9719 41.092 64.0096 42.9755 65.4001C44.4407 66.4818 46.2681 67.2405 48.2936 67.5199V69.7141C48.2903 69.9507 48.334 70.1855 48.4222 70.405C48.5104 70.6245 48.6414 70.8243 48.8075 70.9928C48.9736 71.1613 49.1715 71.295 49.3897 71.3863C49.608 71.4776 49.8422 71.5247 50.0788 71.5247C50.3153 71.5247 50.5495 71.4776 50.7678 71.3863C50.986 71.295 51.184 71.1613 51.35 70.9928C51.5161 70.8243 51.6471 70.6245 51.7353 70.405C51.8235 70.1855 51.8672 69.9507 51.8639 69.7141V67.5199C54.1028 67.2649 56.0238 66.539 57.4796 65.4001C59.3116 63.9667 60.3804 61.8457 60.3804 59.6356C60.3804 57.2995 59.0241 55.2746 57.1449 53.9084C55.3268 52.5865 52.9654 51.7997 50.3763 51.677C50.2891 51.6728 50.2036 51.6423 50.1159 51.6398C50.0516 51.6379 49.9939 51.6428 49.93 51.6398C47.9889 51.5486 46.2652 50.9283 45.0953 50.0778C43.8869 49.1993 43.3102 48.2063 43.3102 47.2514C43.3102 46.17 43.7909 45.1593 44.8722 44.3133C45.9534 43.4673 47.6945 42.8257 50.0788 42.8257C52.0667 42.8257 53.8581 43.4616 55.0622 44.3505C56.2664 45.2395 56.8101 46.2961 56.8101 47.2514C56.8068 47.4879 56.8505 47.7228 56.9387 47.9423C57.0269 48.1618 57.1579 48.3616 57.324 48.53C57.4901 48.6985 57.688 48.8323 57.9062 48.9236C58.1245 49.0149 58.3587 49.0619 58.5953 49.0619C58.8318 49.0619 59.0661 49.0149 59.2843 48.9236C59.5025 48.8323 59.7005 48.6985 59.8666 48.53C60.0327 48.3616 60.1636 48.1618 60.2518 47.9423C60.34 47.7228 60.3837 47.4879 60.3804 47.2514C60.3804 44.9151 59.0656 42.8402 57.182 41.4497C55.7168 40.368 53.8894 39.6364 51.8639 39.3671V37.1357C51.8658 36.8812 51.8134 36.6293 51.7101 36.3968C51.6067 36.1643 51.4549 35.9566 51.2647 35.7875C51.0745 35.6185 50.8504 35.492 50.6074 35.4167C50.3644 35.3413 50.1081 35.3188 49.8556 35.3506ZM9.72761 87.2306C9.49318 87.2428 9.26346 87.3011 9.05155 87.4021C8.83964 87.5031 8.6497 87.6448 8.49257 87.8192C8.17523 88.1714 8.0108 88.6353 8.03546 89.1087C8.06012 89.5821 8.27184 90.0264 8.62405 90.3437C8.97627 90.6611 9.44011 90.8255 9.91356 90.8008H90.244C90.4805 90.8042 90.7154 90.7605 90.9349 90.6723C91.1544 90.5841 91.3542 90.4531 91.5227 90.287C91.6911 90.1209 91.8249 89.923 91.9162 89.7048C92.0075 89.4865 92.0545 89.2523 92.0545 89.0157C92.0545 88.7792 92.0075 88.5449 91.9162 88.3267C91.8249 88.1084 91.6911 87.9105 91.5227 87.7444C91.3542 87.5783 91.1544 87.4474 90.9349 87.3592C90.7154 87.271 90.4805 87.2273 90.244 87.2306H9.91356C9.85162 87.2274 9.78955 87.2274 9.72761 87.2306ZM1.69457 96.4165C1.22112 96.4412 0.776867 96.6529 0.459528 97.0051C0.142189 97.3573 -0.0222366 97.8212 0.00242191 98.2946C0.0270804 98.7681 0.238804 99.2123 0.591015 99.5297C0.943226 99.847 1.40707 100.011 1.88052 99.9868H98.277C98.5135 99.9901 98.7484 99.9464 98.9679 99.8582C99.1874 99.77 99.3872 99.639 99.5557 99.4729C99.7242 99.3068 99.8579 99.1089 99.9492 98.8907C100.041 98.6724 100.088 98.4382 100.088 98.2017C100.088 97.9651 100.041 97.7309 99.9492 97.5126C99.8579 97.2944 99.7242 97.0965 99.5557 96.9304C99.3872 96.7643 99.1874 96.6333 98.9679 96.5451C98.7484 96.4569 98.5135 96.4132 98.277 96.4165H1.88052C1.81858 96.4133 1.75651 96.4133 1.69457 96.4165Z" fill="#2B40C7"/>
</g>
<defs>
<clipPath id="clip0">
<rect width="100" height="100" fill="white"/>
</clipPath>
</defs>
</svg>