<?xml version="1.0" encoding="utf-8"?>
<svg xmlns="http://www.w3.org/2000/svg" width="100" height="100" viewBox="0 0 100 100" fill="none">
<path d="M83.3334 25C84.5 25 85.4167 25.9167 85.4167 27.0833C85.4167 28.25 84.5 29.1667 83.3334 29.1667H66.6667C65.5 29.1667 64.5834 28.25 64.5834 27.0833C64.5834 25.9167 65.5 25 66.6667 25H83.3334Z" fill="#2B40C7"/>
<path d="M83.3334 66.6667C84.5 66.6667 85.4167 67.5834 85.4167 68.75C85.4167 69.9167 84.5 70.8334 83.3334 70.8334H66.6667C65.5 70.8334 64.5834 69.9167 64.5834 68.75C64.5834 67.5834 65.5 66.6667 66.6667 66.6667H83.3334Z" fill="#2B40C7"/>
<path d="M83.3334 79.1667C84.5 79.1667 85.4167 80.0834 85.4167 81.25C85.4167 82.4167 84.5 83.3334 83.3334 83.3334H66.6667C65.5 83.3334 64.5834 82.4167 64.5834 81.25C64.5834 80.0834 65.5 79.1667 66.6667 79.1667H83.3334Z" fill="#2B40C7"/>
<path d="M33.3334 25C34.5 25 35.4167 25.9167 35.4167 27.0833C35.4167 28.25 34.5 29.1667 33.3334 29.1667H27.0834V25H33.3334Z" fill="#2B40C7"/>
<path d="M32.7083 79.7917C33.5417 80.5833 33.5417 81.9167 32.7083 82.7083C32.3333 83.125 31.7917 83.3333 31.25 83.3333C30.7083 83.3333 30.1667 83.125 29.7917 82.7083L25 77.9167L27.9167 75L32.7083 79.7917Z" fill="#2B40C7"/>
<path d="M29.7917 67.2917C30.5833 66.4584 31.9167 66.4584 32.7083 67.2917C33.5417 68.0834 33.5417 69.4167 32.7083 70.2084L27.9167 75L25 72.0834L29.7917 67.2917Z" fill="#2B40C7"/>
<path d="M22.0712 74.9958L24.988 72.079L27.9048 74.9959L24.988 77.9127L22.0712 74.9958Z" fill="#2B40C7"/>
<path d="M27.0834 29.1667V35.4167C27.0834 36.5834 26.1667 37.5 25.0001 37.5C23.8334 37.5 22.9167 36.5834 22.9167 35.4167V29.1667H27.0834Z" fill="#2B40C7"/>
<path d="M22.9167 25H27.0834V29.1667H22.9167V25Z" fill="#2B40C7"/>
<path d="M27.0834 18.75V25H22.9167V18.75C22.9167 17.5834 23.8334 16.6667 25.0001 16.6667C26.1667 16.6667 27.0834 17.5834 27.0834 18.75Z" fill="#2B40C7"/>
<path d="M25.0001 72.0834L22.0834 75L17.2917 70.2084C16.4584 69.4167 16.4584 68.0834 17.2917 67.2917C18.0834 66.4584 19.4167 66.4584 20.2084 67.2917L25.0001 72.0834Z" fill="#2B40C7"/>
<path d="M22.9167 25V29.1667H16.6667C15.5 29.1667 14.5834 28.25 14.5834 27.0833C14.5834 25.9167 15.5 25 16.6667 25H22.9167Z" fill="#2B40C7"/>
<path d="M20.2084 82.7083C19.8334 83.125 19.2917 83.3333 18.7501 83.3333C18.2084 83.3333 17.6667 83.125 17.2917 82.7083C16.4584 81.9167 16.4584 80.5833 17.2917 79.7917L22.0834 75L25.0001 77.9167L20.2084 82.7083Z" fill="#2B40C7"/>
<line x1="52.05" y1="8.96082e-08" x2="52.05" y2="100" stroke="#2B40C7" stroke-width="4.1"/>
<line y1="47.95" x2="100" y2="47.95" stroke="#2B40C7" stroke-width="4.1"/>
<rect x="2.05" y="2.05" width="95.9" height="95.9" rx="10.95" stroke="#2B40C7" stroke-width="4.1"/>
</svg>