<?xml version="1.0" encoding="utf-8"?>
<svg xmlns="http://www.w3.org/2000/svg" width="100" height="100" viewBox="0 0 100 100" fill="none">
<path d="M50 85.9375C49.1375 85.9375 48.4375 85.2391 48.4375 84.375V48.1641C48.4375 47.3016 49.1375 46.6016 50 46.6016C50.8625 46.6016 51.5625 47.3016 51.5625 48.1641V84.375C51.5625 85.2391 50.8625 85.9375 50 85.9375Z" fill="#2B40C7"/>
<path d="M37.5 85.9375C36.6375 85.9375 35.9375 85.2391 35.9375 84.375V82.2922C35.9375 81.4281 36.6375 80.7297 37.5 80.7297C38.3625 80.7297 39.0625 81.4281 39.0625 82.2922V84.375C39.0625 85.2391 38.3625 85.9375 37.5 85.9375Z" fill="#2B40C7"/>
<path d="M43.75 92.1875C39.5156 92.1875 35.9375 88.6094 35.9375 84.375C35.9375 83.5109 36.6375 82.8125 37.5 82.8125C38.3625 82.8125 39.0625 83.5109 39.0625 84.375C39.0625 86.9156 41.2094 89.0625 43.75 89.0625C46.2906 89.0625 48.4375 86.9156 48.4375 84.375C48.4375 83.5109 49.1375 82.8125 50 82.8125C50.8625 82.8125 51.5625 83.5109 51.5625 84.375C51.5625 88.6094 47.9844 92.1875 43.75 92.1875Z" fill="#2B40C7"/>
<path d="M50 17.1875C49.1375 17.1875 48.4375 16.4875 48.4375 15.625V9.375C48.4375 8.5125 49.1375 7.8125 50 7.8125C50.8625 7.8125 51.5625 8.5125 51.5625 9.375V15.625C51.5625 16.4875 50.8625 17.1875 50 17.1875Z" fill="#2B40C7"/>
<path d="M37.975 53.4203C37.1188 53.4203 36.4203 52.7313 36.4125 51.8734C36.2844 38.5172 40.6688 25.3078 48.7563 14.6781C49.2797 13.9906 50.261 13.8578 50.9453 14.3813C51.6313 14.9031 51.7656 15.8844 51.2422 16.5703C43.5719 26.65 39.4156 39.1781 39.536 51.8422C39.5438 52.7063 38.8516 53.4125 37.9891 53.4203C37.986 53.4203 37.9797 53.4203 37.975 53.4203Z" fill="#2B40C7"/>
<path d="M62.025 53.4203C62.0203 53.4203 62.0156 53.4203 62.0094 53.4203C61.1469 53.4125 60.4531 52.7063 60.4625 51.8422C60.5844 39.1781 56.4266 26.65 48.7563 16.5703C48.2344 15.8844 48.3672 14.9031 49.0531 14.3813C49.7391 13.8578 50.7203 13.9906 51.2422 14.6781C59.3297 25.3078 63.7125 38.5172 63.5859 51.8734C63.5781 52.7313 62.8813 53.4203 62.025 53.4203Z" fill="#2B40C7"/>
<path d="M13.9281 53.4203C13.8453 53.4203 13.7641 53.4141 13.6797 53.4C12.8281 53.2641 12.2469 52.4641 12.3812 51.6109C14.5937 37.7234 21.2234 26.4969 31.05 20.0016C42.5875 12.3734 56.8547 12.2063 68.2828 19.5609C78.3594 26.0469 85.3656 37.4656 87.5016 50.8875L87.6172 51.6125C87.7516 52.4656 87.1703 53.2656 86.3172 53.4C85.4734 53.5422 84.6656 52.9547 84.5297 52.1016L84.4141 51.3781C82.4172 38.8359 75.9203 28.1953 66.5906 22.1891C56.2172 15.5141 43.2594 15.6766 32.7703 22.6078C23.8172 28.5297 17.5109 39.2813 15.4687 52.1047C15.3453 52.8734 14.6812 53.4203 13.9281 53.4203Z" fill="#2B40C7"/>
<path d="M86.0734 53.4203C85.7719 53.4203 85.4656 53.3328 85.1969 53.15C78.4266 48.5594 69.6734 48.5594 62.9016 53.15C62.1891 53.6375 61.2156 53.4484 60.7312 52.7344C60.2469 52.0203 60.4328 51.0484 61.1469 50.5625C68.9875 45.2469 79.1156 45.2469 86.9516 50.5625C87.6656 51.0484 87.8516 52.0203 87.3672 52.7344C87.0656 53.1812 86.5734 53.4203 86.0734 53.4203Z" fill="#2B40C7"/>
<path d="M62.0234 53.4203C61.7219 53.4203 61.4156 53.3328 61.1469 53.15C54.375 48.5578 45.6234 48.5578 38.8516 53.15C38.1375 53.6375 37.1656 53.4484 36.6813 52.7344C36.1969 52.0203 36.3828 51.0484 37.0969 50.5625C44.9359 45.2469 55.0625 45.2469 62.9016 50.5625C63.6156 51.0484 63.8016 52.0203 63.3172 52.7344C63.0156 53.1812 62.5234 53.4203 62.0234 53.4203Z" fill="#2B40C7"/>
<path d="M37.9735 53.4203C37.6719 53.4203 37.3656 53.3328 37.0969 53.15C30.3235 48.5562 21.5719 48.5578 14.8016 53.15C14.0875 53.6375 13.1156 53.4484 12.6313 52.7344C12.1469 52.0203 12.3328 51.0484 13.0469 50.5625C20.886 45.2469 31.0141 45.2469 38.8516 50.5625C39.5656 51.0484 39.7516 52.0203 39.2672 52.7344C38.9656 53.1812 38.475 53.4203 37.9735 53.4203Z" fill="#2B40C7"/>
</svg>