<?xml version="1.0" encoding="utf-8"?>
<svg xmlns="http://www.w3.org/2000/svg" width="100" height="100" viewBox="0 0 100 100" fill="none">
<path d="M98.7939 74.8822C98.7939 69.4375 93.5005 65.6565 88.5096 67.3201L68.3946 73.6722L63.8574 73.3698C64.6136 72.3111 65.0673 71.1011 65.2185 69.8912C65.6723 65.8077 62.4962 62.3292 58.4127 62.3292H44.4986C39.0539 58.3969 32.2481 56.1283 25.4423 56.1283H20.4513V52.4986C20.4513 51.5911 19.8464 50.9861 18.9389 50.9861H3.51241C2.60496 50.9861 2 51.5911 2 52.4986V83.9566C2 84.864 2.60496 85.469 3.51241 85.469H18.9389C19.8464 85.469 20.4513 84.864 20.4513 83.9566V81.3855L50.397 90.3087C51.6069 90.6112 52.6656 90.7624 53.8755 90.7624C55.2367 90.7624 56.5978 90.6112 57.8078 90.1575L97.7353 76.2433C98.3402 76.0921 98.7939 75.4871 98.7939 74.8822ZM17.4265 82.4442H5.02481V54.011H17.4265C17.4265 61.1193 17.4265 75.4871 17.4265 82.4442ZM56.7491 87.2839C54.9342 87.8888 52.9681 87.8888 51.1532 87.4351L20.3001 78.2095V59.1531H25.291C31.6431 59.1531 37.844 61.2705 42.8349 65.0515C43.1374 65.2028 43.4399 65.354 43.7424 65.354H58.2615C60.5301 65.354 62.345 67.3201 62.0425 69.5887C61.8913 71.7061 60.0764 73.2185 57.959 73.0673L43.8936 72.0086C43.1374 72.0086 42.3812 72.6135 42.23 73.3698C42.23 74.126 42.8349 74.8822 43.5911 75.0334L68.0921 76.8483C68.2434 76.8483 68.5458 76.8483 68.6971 76.8483L89.1145 70.3449C91.9881 69.4375 94.8617 71.2524 95.4667 73.9747L56.7491 87.2839Z" fill="#2B40C7"/>
<path d="M57.2027 59.0019H57.3539C63.8573 59.0019 70.0581 56.2796 74.5954 51.7424C79.1326 47.0539 81.7037 40.8531 81.7037 34.3497C81.7037 27.8464 79.1326 21.6455 74.4441 17.1083C69.7557 12.5711 63.706 10 57.2027 10H57.0515C43.5911 10.1512 32.5505 21.1918 32.7017 34.6522C32.853 48.1126 43.7423 59.0019 57.2027 59.0019ZM57.0515 13.0248H57.2027C62.9498 13.0248 68.2432 15.2934 72.3267 19.2257C76.4102 23.3092 78.6788 28.6026 78.6788 34.3497C78.6788 40.0969 76.5615 45.5415 72.478 49.625C68.3945 53.7085 63.1011 55.9771 57.3539 55.9771H57.2027C45.4059 55.9771 35.7265 46.449 35.7265 34.6522C35.5753 22.7042 45.2547 13.0248 57.0515 13.0248Z" fill="#2B40C7"/>
<path d="M47.3724 42.668C50.0948 44.9366 52.9683 46.2977 56.2956 46.6002V49.3225H58.5642V46.7515C63.2527 46.449 66.7312 43.8779 66.7312 39.3407C66.7312 34.501 63.2527 32.9886 58.5642 31.9299H58.413V25.1241C60.2279 25.4265 62.0428 26.0315 63.7064 27.2414L65.975 23.9141C63.5552 22.2505 61.1353 21.3431 58.413 21.1918V19.3769H56.1444V21.1918C51.6072 21.4943 48.2799 24.2166 48.2799 28.6026C48.2799 33.2911 51.6072 34.8035 56.2956 35.8621V42.9704C54.1783 42.668 52.0609 41.6093 49.9435 39.7944L47.3724 42.668ZM62.4965 39.4919C62.4965 41.458 60.6816 42.3655 58.7155 42.668V36.1646C60.8328 36.7696 62.3452 37.5258 62.4965 39.4919ZM52.8171 27.8464C52.8171 26.0315 54.4807 24.9728 56.2956 24.8216V31.1737C54.1783 30.4175 52.8171 29.8125 52.8171 27.8464Z" fill="#2B40C7"/>
</svg>