<?xml version="1.0" encoding="utf-8"?>
<svg xmlns="http://www.w3.org/2000/svg" width="1402" height="1026" viewBox="0 0 1402 1026" fill="none">
<path d="M140.867 0.893311C63.3093 0.893311 0.0932617 63.9613 0.0932617 141.52V884.347C0.0932617 961.904 63.3066 1025.12 140.867 1025.12H1261.08C1338.64 1025.12 1401.89 961.907 1401.89 884.347V141.52C1401.89 63.9627 1338.63 0.893311 1261.08 0.893311H140.867ZM140.867 50.8933H1261.08C1311.8 50.8933 1351.9 90.7947 1351.9 141.519L1351.9 251.675H50.0974V141.519C50.0974 90.7947 90.1441 50.8933 140.868 50.8933H140.867ZM50.0959 301.72H1351.9V426.283H50.0959V301.72ZM50.0959 476.28H1351.9V884.333C1351.9 935.057 1311.8 975.104 1261.07 975.104H140.86C90.1359 975.104 50.0893 935.057 50.0893 884.333L50.0959 476.28ZM203.069 641.267H203.064C196.34 641.116 189.835 643.683 185.028 648.392C180.216 653.095 177.507 659.538 177.507 666.267C177.507 672.995 180.216 679.438 185.028 684.146C189.835 688.85 196.341 691.417 203.064 691.266H517.717C526.514 691.073 534.567 686.266 538.911 678.61C543.254 670.954 543.254 661.579 538.911 653.922C534.567 646.271 526.515 641.464 517.717 641.266L203.069 641.267ZM203.069 776.373H203.064C196.34 776.222 189.835 778.79 185.028 783.493C180.216 788.201 177.507 794.644 177.507 801.373C177.507 808.102 180.216 814.545 185.028 819.248C189.835 823.951 196.341 826.519 203.064 826.373H337.437C344.167 826.519 350.667 823.951 355.479 819.248C360.286 814.545 363 808.102 363 801.373C363 794.644 360.286 788.201 355.479 783.493C350.666 778.79 344.166 776.222 337.437 776.373H203.069Z" fill="#2B40C7"/>
</svg>