<?xml version="1.0" encoding="utf-8"?>
<svg xmlns="http://www.w3.org/2000/svg" width="100" height="100" viewBox="0 0 100 100" fill="none">
<path d="M81.5 27.473H76.749L70.315 11.696C69.158 8.85998 66.43 7.02698 63.367 7.02698C62.396 7.02698 61.444 7.21498 60.538 7.58398L25.352 21.934C23.497 22.69 22.048 24.124 21.271 25.971C21.065 26.461 20.917 26.964 20.818 27.474H18.5C14.364 27.474 11 30.838 11 34.974V35.474V85.474C11 89.611 14.364 92.974 18.5 92.974H81.5C85.636 92.974 89 89.611 89 85.474V80.474V58.724V47.474V34.974C89 30.837 85.636 27.473 81.5 27.473ZM24.036 27.133C24.502 26.025 25.372 25.165 26.485 24.711L61.671 10.361C62.216 10.139 62.786 10.026 63.367 10.026C65.206 10.026 66.843 11.126 67.538 12.828L75.987 33.547C76.924 35.844 75.817 38.476 73.519 39.413L72.147 39.973H63.541L66.389 38.812C68.686 37.875 69.793 35.244 68.857 32.946L62.862 18.247C62.169 16.545 60.533 15.445 58.695 15.445C58.111 15.445 57.54 15.557 56.997 15.779L30.722 26.493C29.609 26.947 28.74 27.807 28.273 28.915C27.807 30.023 27.8 31.247 28.254 32.359L31.359 39.973H27.849L24.017 30.577C23.563 29.464 23.57 28.241 24.036 27.133ZM55.596 39.973H34.599L31.032 31.226C30.881 30.855 30.883 30.448 31.038 30.079C31.193 29.71 31.483 29.423 31.854 29.272L58.128 18.557C58.311 18.483 58.5 18.445 58.693 18.445C59.305 18.445 59.851 18.812 60.083 19.38L66.078 34.079C66.39 34.845 66.02 35.723 65.255 36.035L55.596 39.973ZM14 34.973C14 32.492 16.019 30.473 18.5 30.473H20.861C20.953 30.891 21.074 31.306 21.239 31.71L24.609 39.973H18.5C16.019 39.973 14 37.954 14 35.473V34.973ZM86 77.473H62.25C59.769 77.473 57.75 75.455 57.75 72.973V66.223C57.75 63.743 59.769 61.723 62.25 61.723H86V77.473ZM86 58.723H62.25C58.114 58.723 54.75 62.088 54.75 66.223V72.973C54.75 77.11 58.114 80.473 62.25 80.473H86V85.473C86 87.955 83.981 89.973 81.5 89.973H18.5C16.019 89.973 14 87.955 14 85.473V41.47C15.254 42.413 16.813 42.973 18.5 42.973H81.5C83.981 42.973 86 44.992 86 47.473V58.723ZM86 41.487C84.745 40.541 83.189 39.973 81.5 39.973H77.64C79.306 37.914 79.833 35.035 78.765 32.415L77.973 30.473H81.5C83.981 30.473 86 32.492 86 34.973V41.487Z" fill="#2B40C7"/>
</svg>